<?xml version="1.0" encoding="UTF-8" standalone="no"?>
<!DOCTYPE svg PUBLIC "-//W3C//DTD SVG 1.1//EN"
 "http://www.w3.org/Graphics/SVG/1.1/DTD/svg11.dtd">
<!-- Generated by graphviz version 2.40.1 (20161225.0304)
 -->
<!-- Title: G Pages: 1 -->
<svg width="572pt" height="155pt"
 viewBox="0.00 0.00 571.81 155.00" xmlns="http://www.w3.org/2000/svg" xmlns:xlink="http://www.w3.org/1999/xlink">
<g id="graph0" class="graph" transform="scale(1 1) rotate(0) translate(4 151)">
<title>G</title>
<polygon fill="#ffffff" stroke="transparent" points="-4,4 -4,-151 567.8052,-151 567.8052,4 -4,4"/>
<g id="clust1" class="cluster">
<title>cluster_0</title>
<polygon fill="#add8e6" stroke="#000000" points="101.547,-8 101.547,-139 281.9664,-139 281.9664,-8 101.547,-8"/>
<text text-anchor="middle" x="191.7567" y="-122.4" font-family="Times,serif" font-size="14.00" fill="#000000">KONG 1.x</text>
</g>
<!-- Route 1 -->
<g id="node1" class="node">
<title>Route 1</title>
<polygon fill="#ffffff" stroke="#000000" points="169.4597,-106 109.5761,-106 109.5761,-70 169.4597,-70 169.4597,-106"/>
<text text-anchor="middle" x="139.5179" y="-83.8" font-family="Times,serif" font-size="14.00" fill="#000000">Route 1</text>
</g>
<!-- Service 1 -->
<g id="node2" class="node">
<title>Service 1</title>
<polygon fill="#ffffff" stroke="#000000" points="274.2069,-106 205.2483,-106 205.2483,-70 274.2069,-70 274.2069,-106"/>
<text text-anchor="middle" x="239.7276" y="-83.8" font-family="Times,serif" font-size="14.00" fill="#000000">Service 1</text>
</g>
<!-- Route 1&#45;&gt;Service 1 -->
<g id="edge1" class="edge">
<title>Route 1&#45;&gt;Service 1</title>
<path fill="none" stroke="#000000" d="M169.5841,-88C177.7057,-88 186.6683,-88 195.3943,-88"/>
<polygon fill="#000000" stroke="#000000" points="195.4645,-91.5001 205.4645,-88 195.4645,-84.5001 195.4645,-91.5001"/>
</g>
<!-- Corporate Proxy -->
<g id="node5" class="node">
<title>Corporate Proxy</title>
<polygon fill="#ffffe0" stroke="#000000" points="418.8476,-106 310.006,-106 310.006,-70 418.8476,-70 418.8476,-106"/>
<text text-anchor="middle" x="364.4268" y="-83.8" font-family="Times,serif" font-size="14.00" fill="#000000">Corporate Proxy</text>
</g>
<!-- Service 1&#45;&gt;Corporate Proxy -->
<g id="edge4" class="edge">
<title>Service 1&#45;&gt;Corporate Proxy</title>
<path fill="none" stroke="#000000" d="M274.1323,-88C282.0082,-88 290.6341,-88 299.3314,-88"/>
<polygon fill="#000000" stroke="#000000" points="299.5335,-91.5001 309.5334,-88 299.5334,-84.5001 299.5335,-91.5001"/>
</g>
<!-- Route 2 -->
<g id="node3" class="node">
<title>Route 2</title>
<polygon fill="#ffffff" stroke="#000000" points="169.4597,-52 109.5761,-52 109.5761,-16 169.4597,-16 169.4597,-52"/>
<text text-anchor="middle" x="139.5179" y="-29.8" font-family="Times,serif" font-size="14.00" fill="#000000">Route 2</text>
</g>
<!-- Service 2 -->
<g id="node4" class="node">
<title>Service 2</title>
<polygon fill="#ffffff" stroke="#000000" points="274.2069,-52 205.2483,-52 205.2483,-16 274.2069,-16 274.2069,-52"/>
<text text-anchor="middle" x="239.7276" y="-29.8" font-family="Times,serif" font-size="14.00" fill="#000000">Service 2</text>
</g>
<!-- Route 2&#45;&gt;Service 2 -->
<g id="edge2" class="edge">
<title>Route 2&#45;&gt;Service 2</title>
<path fill="none" stroke="#000000" d="M169.5841,-34C177.7057,-34 186.6683,-34 195.3943,-34"/>
<polygon fill="#000000" stroke="#000000" points="195.4645,-37.5001 205.4645,-34 195.4645,-30.5001 195.4645,-37.5001"/>
</g>
<!-- UpstreamURL 2 -->
<g id="node7" class="node">
<title>UpstreamURL 2</title>
<polygon fill="none" stroke="#000000" points="563.7642,-52 454.9282,-52 454.9282,-16 563.7642,-16 563.7642,-52"/>
<text text-anchor="middle" x="509.3462" y="-29.8" font-family="Times,serif" font-size="14.00" fill="#000000">UpstreamURL 2</text>
</g>
<!-- Service 2&#45;&gt;UpstreamURL 2 -->
<g id="edge7" class="edge">
<title>Service 2&#45;&gt;UpstreamURL 2</title>
<path fill="none" stroke="#000000" d="M274.1488,-34C317.027,-34 391.1639,-34 444.7586,-34"/>
<polygon fill="#000000" stroke="#000000" points="444.8511,-37.5001 454.8511,-34 444.8511,-30.5001 444.8511,-37.5001"/>
</g>
<!-- UpstreamURL 1 -->
<g id="node6" class="node">
<title>UpstreamURL 1</title>
<polygon fill="none" stroke="#000000" points="563.7642,-106 454.9282,-106 454.9282,-70 563.7642,-70 563.7642,-106"/>
<text text-anchor="middle" x="509.3462" y="-83.8" font-family="Times,serif" font-size="14.00" fill="#000000">UpstreamURL 1</text>
</g>
<!-- Corporate Proxy&#45;&gt;UpstreamURL 1 -->
<g id="edge5" class="edge">
<title>Corporate Proxy&#45;&gt;UpstreamURL 1</title>
<path fill="none" stroke="#000000" d="M419.2146,-88C427.4203,-88 435.9481,-88 444.341,-88"/>
<polygon fill="#000000" stroke="#000000" points="444.4809,-91.5001 454.4809,-88 444.4809,-84.5001 444.4809,-91.5001"/>
</g>
<!-- Consumer -->
<g id="node8" class="node">
<title>Consumer</title>
<polygon fill="none" stroke="#000000" points="73.3219,-79 .2251,-79 .2251,-43 73.3219,-43 73.3219,-79"/>
<text text-anchor="middle" x="36.7735" y="-56.8" font-family="Times,serif" font-size="14.00" fill="#000000">Consumer</text>
</g>
<!-- Consumer&#45;&gt;Route 1 -->
<g id="edge3" class="edge">
<title>Consumer&#45;&gt;Route 1</title>
<path fill="none" stroke="#000000" d="M73.5764,-70.6714C82.0192,-72.89 91.0343,-75.2591 99.6016,-77.5105"/>
<polygon fill="#000000" stroke="#000000" points="98.8307,-80.9267 109.3919,-80.0832 100.6099,-74.1565 98.8307,-80.9267"/>
</g>
<!-- Consumer&#45;&gt;Route 2 -->
<g id="edge6" class="edge">
<title>Consumer&#45;&gt;Route 2</title>
<path fill="none" stroke="#000000" d="M73.5764,-51.3286C82.0192,-49.11 91.0343,-46.7409 99.6016,-44.4895"/>
<polygon fill="#000000" stroke="#000000" points="100.6099,-47.8435 109.3919,-41.9168 98.8307,-41.0733 100.6099,-47.8435"/>
</g>
</g>
</svg>
